<svg id="SvgjsSvg1000" xmlns="http://www.w3.org/2000/svg" version="1.1" xmlns:xlink="http://www.w3.org/1999/xlink" xmlns:svgjs="http://svgjs.com/svgjs" width="133" height="15" viewBox="0 0 133 15"><title>logo</title><desc>Created with Avocode.</desc><defs id="SvgjsDefs1001"/><path id="SvgjsPath1007" d="M60.4 61L60.4 63.65L67.88 63.65L59.99999999999999 73.2L59.99999999999999 75.01L72.27 75.01L72.27 72.39L64.38 72.39L72.27 62.84L72.27 61Z " fill="#ffffff" fill-opacity="1" transform="matrix(1,0,0,1,-60,-61)"/><path id="SvgjsPath1008" d="M87.36 61L81.03999999999999 67.09L81.02999999999999 61L77.99999999999999 61L77.99999999999999 75.01L81.02999999999999 75.01L81.02999999999999 70.61L83.25999999999999 68.48L88.39999999999999 75.01L92.24999999999999 75.01L85.40999999999998 66.47L91.17999999999998 61Z " fill="#ffffff" fill-opacity="1" transform="matrix(1,0,0,1,-60,-61)"/><path id="SvgjsPath1009" d="M98 75.01L101.03 75.01L101.03 61.00000000000001L98 61.00000000000001Z " fill="#ffffff" fill-opacity="1" transform="matrix(1,0,0,1,-60,-61)"/><path id="SvgjsPath1010" d="M111.03 63.59L111.03 67.27000000000001L115.79 67.27000000000001C116.37 67.31000000000002 116.94000000000001 67.12 117.38000000000001 66.74000000000001C117.73 66.4 117.93 65.94000000000001 117.93 65.45C117.93 64.98 117.75 64.53 117.42 64.19C116.98 63.769999999999996 116.39 63.559999999999995 115.79 63.61ZM108 75.01L108 61.00000000000001L115.68 61.00000000000001C117.64 61.00000000000001 118.95 61.56000000000001 119.87 62.540000000000006C121.44 64.25 121.36 66.91000000000001 119.68 68.51C118.81 69.34 117.58000000000001 69.86 115.69000000000001 69.86L111.04 69.86L111.04 75.01Z " fill="#ffffff" fill-opacity="1" transform="matrix(1,0,0,1,-60,-61)"/><path id="SvgjsPath1011" d="M136.21 65.06C134.79000000000002 64.06 133.09 63.54 131.36 63.56C129.98000000000002 63.56 128.75 64.07000000000001 128.75 65.27C128.75 66.47 130.57 66.6 132.39 66.75999999999999C134.92 66.92999999999999 138.85999999999999 67.22999999999999 138.85999999999999 71.08999999999999C138.85999999999999 74.54999999999998 136.01999999999998 75.89999999999999 132.61999999999998 75.89999999999999C129.83999999999997 75.91999999999999 127.12999999999998 74.94 124.99999999999997 73.11999999999999L126.71999999999997 71.02C128.35999999999996 72.49 130.46999999999997 73.32 132.65999999999997 73.38C134.41999999999996 73.38 135.82999999999996 72.69999999999999 135.82999999999996 71.38C135.82999999999996 70.07 134.39999999999995 69.72999999999999 132.31999999999996 69.53999999999999C129.28999999999996 69.35 125.71999999999997 69.00999999999999 125.71999999999997 65.44C125.71999999999997 62.05 128.83999999999997 61 131.44999999999996 61C133.74999999999997 61 136.00999999999996 61.65 137.96999999999997 62.89Z " fill="#ffffff" fill-opacity="1" transform="matrix(1,0,0,1,-60,-61)"/><path id="SvgjsPath1012" d="M143 61L156.08 61L156.08 63.66L151.07000000000002 63.66L151.07000000000002 75.00999999999999L148.03000000000003 75.00999999999999L148.03000000000003 63.65999999999999L143.00000000000003 63.65999999999999Z " fill="#ffffff" fill-opacity="1" transform="matrix(1,0,0,1,-60,-61)"/><path id="SvgjsPath1013" d="M169.15 69.02L164.03 69.02L164.03 72.36999999999999L173.03 72.36999999999999L173.03 75.00999999999999L161 75.00999999999999L161 60.99999999999999L172.52 60.99999999999999L172.52 63.66L164.03 63.66L164.03 66.39L169.15 66.39Z " fill="#ffffff" fill-opacity="1" transform="matrix(1,0,0,1,-60,-61)"/><path id="SvgjsPath1014" d="M182.03 63.59L182.03 67.27000000000001L187 67.27000000000001C188.02 67.32000000000001 188.89 66.52000000000001 188.93 65.49000000000001C188.93 65.47000000000001 188.93 65.45 188.93 65.43C188.94 64.97000000000001 188.76000000000002 64.53 188.44 64.21000000000001C188.01 63.760000000000005 187.4 63.540000000000006 186.79 63.59000000000001ZM179 75.01L179 61.00000000000001L186.68 61.00000000000001C188.66 61.00000000000001 189.95000000000002 61.580000000000005 190.84 62.53000000000001C191.58 63.31000000000001 191.99 64.35000000000001 191.99 65.43C191.99 67.23 190.89000000000001 68.63000000000001 189.19 69.37L192.43 75.01L188.95000000000002 75.01L186.15 69.86L182.03 69.86L182.03 75.01Z " fill="#ffffff" fill-opacity="1" transform="matrix(1,0,0,1,-60,-61)"/></svg>